@startuml

class Emoji {
    identifier
    name
}

class EmojiCount {
    count
}

class Channel {
    identifier
    last_emoji_update
    last_message_update
}

class User {
    identifier
    name
}

class MessageCount {
   count
}

Channel "1" -- "*" EmojiCount
EmojiCount "*" -- "1" Emoji
Channel "1" -- "*" MessageCount
MessageCount "*" -- "1" User

@enduml